<svg xmlns="http://www.w3.org/2000/svg" xmlns:xlink="http://www.w3.org/1999/xlink" width="150" zoomAndPan="magnify" viewBox="0 0 75 74.999997" height="40" preserveAspectRatio="xMidYMid meet" version="1.0"><defs><g/><clipPath id="fddad5f9ce"><path d="M 25.050781 34.800781 L 47.550781 34.800781 L 47.550781 40.949219 L 25.050781 40.949219 Z M 25.050781 34.800781 " clip-rule="nonzero"/></clipPath></defs><g clip-path="url(#fddad5f9ce)"><path fill="#ffffff" d="M 25.050781 34.800781 L 47.550781 34.800781 L 47.550781 40.777344 L 25.050781 40.777344 Z M 25.050781 34.800781 " fill-opacity="1" fill-rule="nonzero"/></g><g fill="#026530" fill-opacity="1"><g transform="translate(4.199595, 38.750001)"><g><path d="M 0.453125 -3.5625 L 1.5625 -3.5625 C 2.03125 -3.5625 2.382812 -3.492188 2.625 -3.359375 C 2.875 -3.234375 3 -3.003906 3 -2.671875 C 3 -2.460938 2.953125 -2.285156 2.859375 -2.140625 C 2.765625 -2.003906 2.628906 -1.921875 2.453125 -1.890625 L 2.453125 -1.875 C 2.566406 -1.84375 2.671875 -1.796875 2.765625 -1.734375 C 2.867188 -1.679688 2.945312 -1.597656 3 -1.484375 C 3.0625 -1.367188 3.09375 -1.21875 3.09375 -1.03125 C 3.09375 -0.707031 2.972656 -0.453125 2.734375 -0.265625 C 2.503906 -0.0859375 2.1875 0 1.78125 0 L 0.453125 0 Z M 1.203125 -2.15625 L 1.640625 -2.15625 C 1.859375 -2.15625 2.007812 -2.1875 2.09375 -2.25 C 2.1875 -2.320312 2.234375 -2.425781 2.234375 -2.5625 C 2.234375 -2.695312 2.179688 -2.796875 2.078125 -2.859375 C 1.984375 -2.921875 1.828125 -2.953125 1.609375 -2.953125 L 1.203125 -2.953125 Z M 1.203125 -1.5625 L 1.203125 -0.625 L 1.703125 -0.625 C 1.929688 -0.625 2.085938 -0.664062 2.171875 -0.75 C 2.265625 -0.84375 2.3125 -0.960938 2.3125 -1.109375 C 2.3125 -1.242188 2.265625 -1.351562 2.171875 -1.4375 C 2.078125 -1.519531 1.910156 -1.5625 1.671875 -1.5625 Z M 1.203125 -1.5625 "/></g></g></g><g fill="#026530" fill-opacity="1"><g transform="translate(7.559624, 38.750001)"><g><path d="M 1.140625 -3.796875 L 1.140625 -3.03125 C 1.140625 -2.882812 1.132812 -2.75 1.125 -2.625 C 1.113281 -2.507812 1.101562 -2.425781 1.09375 -2.375 L 1.140625 -2.375 C 1.222656 -2.519531 1.332031 -2.625 1.46875 -2.6875 C 1.613281 -2.75 1.769531 -2.78125 1.9375 -2.78125 C 2.226562 -2.78125 2.460938 -2.703125 2.640625 -2.546875 C 2.816406 -2.390625 2.90625 -2.132812 2.90625 -1.78125 L 2.90625 0 L 2.171875 0 L 2.171875 -1.59375 C 2.171875 -1.988281 2.019531 -2.1875 1.71875 -2.1875 C 1.5 -2.1875 1.347656 -2.109375 1.265625 -1.953125 C 1.179688 -1.796875 1.140625 -1.570312 1.140625 -1.28125 L 1.140625 0 L 0.390625 0 L 0.390625 -3.796875 Z M 1.140625 -3.796875 "/></g></g></g><g fill="#026530" fill-opacity="1"><g transform="translate(10.844649, 38.750001)"><g><path d="M 1.515625 -2.78125 C 1.878906 -2.78125 2.15625 -2.703125 2.34375 -2.546875 C 2.539062 -2.390625 2.640625 -2.144531 2.640625 -1.8125 L 2.640625 0 L 2.125 0 L 1.984375 -0.375 L 1.953125 -0.375 C 1.835938 -0.226562 1.710938 -0.117188 1.578125 -0.046875 C 1.453125 0.015625 1.28125 0.046875 1.0625 0.046875 C 0.8125 0.046875 0.601562 -0.0195312 0.4375 -0.15625 C 0.28125 -0.300781 0.203125 -0.519531 0.203125 -0.8125 C 0.203125 -1.101562 0.300781 -1.316406 0.5 -1.453125 C 0.707031 -1.585938 1.019531 -1.664062 1.4375 -1.6875 L 1.90625 -1.703125 L 1.90625 -1.8125 C 1.90625 -1.957031 1.867188 -2.0625 1.796875 -2.125 C 1.722656 -2.195312 1.617188 -2.234375 1.484375 -2.234375 C 1.347656 -2.234375 1.21875 -2.210938 1.09375 -2.171875 C 0.96875 -2.140625 0.835938 -2.09375 0.703125 -2.03125 L 0.46875 -2.546875 C 0.613281 -2.617188 0.773438 -2.675781 0.953125 -2.71875 C 1.128906 -2.757812 1.316406 -2.78125 1.515625 -2.78125 Z M 1.90625 -1.265625 L 1.609375 -1.25 C 1.367188 -1.25 1.203125 -1.207031 1.109375 -1.125 C 1.015625 -1.039062 0.96875 -0.9375 0.96875 -0.8125 C 0.96875 -0.695312 1 -0.613281 1.0625 -0.5625 C 1.132812 -0.519531 1.222656 -0.5 1.328125 -0.5 C 1.492188 -0.5 1.628906 -0.546875 1.734375 -0.640625 C 1.847656 -0.734375 1.90625 -0.867188 1.90625 -1.046875 Z M 1.90625 -1.265625 "/></g></g></g><g fill="#026530" fill-opacity="1"><g transform="translate(13.864674, 38.750001)"><g><path d="M 1.921875 -2.78125 C 1.953125 -2.78125 1.992188 -2.773438 2.046875 -2.765625 C 2.097656 -2.765625 2.140625 -2.765625 2.171875 -2.765625 L 2.109375 -2.0625 C 2.078125 -2.0625 2.039062 -2.0625 2 -2.0625 C 1.957031 -2.070312 1.921875 -2.078125 1.890625 -2.078125 C 1.765625 -2.078125 1.640625 -2.054688 1.515625 -2.015625 C 1.398438 -1.972656 1.304688 -1.898438 1.234375 -1.796875 C 1.171875 -1.703125 1.140625 -1.566406 1.140625 -1.390625 L 1.140625 0 L 0.390625 0 L 0.390625 -2.734375 L 0.953125 -2.734375 L 1.0625 -2.265625 L 1.09375 -2.265625 C 1.175781 -2.410156 1.285156 -2.53125 1.421875 -2.625 C 1.566406 -2.726562 1.734375 -2.78125 1.921875 -2.78125 Z M 1.921875 -2.78125 "/></g></g></g><g fill="#026530" fill-opacity="1"><g transform="translate(16.134696, 38.750001)"><g><path d="M 1.515625 -2.78125 C 1.878906 -2.78125 2.15625 -2.703125 2.34375 -2.546875 C 2.539062 -2.390625 2.640625 -2.144531 2.640625 -1.8125 L 2.640625 0 L 2.125 0 L 1.984375 -0.375 L 1.953125 -0.375 C 1.835938 -0.226562 1.710938 -0.117188 1.578125 -0.046875 C 1.453125 0.015625 1.28125 0.046875 1.0625 0.046875 C 0.8125 0.046875 0.601562 -0.0195312 0.4375 -0.15625 C 0.28125 -0.300781 0.203125 -0.519531 0.203125 -0.8125 C 0.203125 -1.101562 0.300781 -1.316406 0.5 -1.453125 C 0.707031 -1.585938 1.019531 -1.664062 1.4375 -1.6875 L 1.90625 -1.703125 L 1.90625 -1.8125 C 1.90625 -1.957031 1.867188 -2.0625 1.796875 -2.125 C 1.722656 -2.195312 1.617188 -2.234375 1.484375 -2.234375 C 1.347656 -2.234375 1.21875 -2.210938 1.09375 -2.171875 C 0.96875 -2.140625 0.835938 -2.09375 0.703125 -2.03125 L 0.46875 -2.546875 C 0.613281 -2.617188 0.773438 -2.675781 0.953125 -2.71875 C 1.128906 -2.757812 1.316406 -2.78125 1.515625 -2.78125 Z M 1.90625 -1.265625 L 1.609375 -1.25 C 1.367188 -1.25 1.203125 -1.207031 1.109375 -1.125 C 1.015625 -1.039062 0.96875 -0.9375 0.96875 -0.8125 C 0.96875 -0.695312 1 -0.613281 1.0625 -0.5625 C 1.132812 -0.519531 1.222656 -0.5 1.328125 -0.5 C 1.492188 -0.5 1.628906 -0.546875 1.734375 -0.640625 C 1.847656 -0.734375 1.90625 -0.867188 1.90625 -1.046875 Z M 1.90625 -1.265625 "/></g></g></g><g fill="#026530" fill-opacity="1"><g transform="translate(19.15472, 38.750001)"><g><path d="M 1.546875 -0.546875 C 1.628906 -0.546875 1.707031 -0.550781 1.78125 -0.5625 C 1.851562 -0.582031 1.929688 -0.601562 2.015625 -0.625 L 2.015625 -0.078125 C 1.929688 -0.0351562 1.828125 -0.00390625 1.703125 0.015625 C 1.585938 0.0351562 1.460938 0.046875 1.328125 0.046875 C 1.160156 0.046875 1.007812 0.0195312 0.875 -0.03125 C 0.75 -0.0820312 0.648438 -0.171875 0.578125 -0.296875 C 0.503906 -0.429688 0.46875 -0.617188 0.46875 -0.859375 L 0.46875 -2.171875 L 0.109375 -2.171875 L 0.109375 -2.484375 L 0.53125 -2.734375 L 0.734375 -3.3125 L 1.21875 -3.3125 L 1.21875 -2.734375 L 1.984375 -2.734375 L 1.984375 -2.171875 L 1.21875 -2.171875 L 1.21875 -0.859375 C 1.21875 -0.753906 1.242188 -0.675781 1.296875 -0.625 C 1.359375 -0.570312 1.441406 -0.546875 1.546875 -0.546875 Z M 1.546875 -0.546875 "/></g></g></g><g fill="#026530" fill-opacity="1"><g transform="translate(21.32474, 38.750001)"><g/></g></g><g fill="#026530" fill-opacity="1"><g transform="translate(22.624752, 38.750001)"><g><path d="M 1.921875 -2.78125 C 1.953125 -2.78125 1.992188 -2.773438 2.046875 -2.765625 C 2.097656 -2.765625 2.140625 -2.765625 2.171875 -2.765625 L 2.109375 -2.0625 C 2.078125 -2.0625 2.039062 -2.0625 2 -2.0625 C 1.957031 -2.070312 1.921875 -2.078125 1.890625 -2.078125 C 1.765625 -2.078125 1.640625 -2.054688 1.515625 -2.015625 C 1.398438 -1.972656 1.304688 -1.898438 1.234375 -1.796875 C 1.171875 -1.703125 1.140625 -1.566406 1.140625 -1.390625 L 1.140625 0 L 0.390625 0 L 0.390625 -2.734375 L 0.953125 -2.734375 L 1.0625 -2.265625 L 1.09375 -2.265625 C 1.175781 -2.410156 1.285156 -2.53125 1.421875 -2.625 C 1.566406 -2.726562 1.734375 -2.78125 1.921875 -2.78125 Z M 1.921875 -2.78125 "/></g></g></g><g fill="#026530" fill-opacity="1"><g transform="translate(24.894774, 38.750001)"><g><path d="M 2.890625 -2.734375 L 2.890625 0 L 2.328125 0 L 2.21875 -0.34375 L 2.1875 -0.34375 C 2.101562 -0.207031 1.984375 -0.109375 1.828125 -0.046875 C 1.671875 0.015625 1.507812 0.046875 1.34375 0.046875 C 1.050781 0.046875 0.816406 -0.03125 0.640625 -0.1875 C 0.460938 -0.34375 0.375 -0.597656 0.375 -0.953125 L 0.375 -2.734375 L 1.125 -2.734375 L 1.125 -1.140625 C 1.125 -0.941406 1.15625 -0.789062 1.21875 -0.6875 C 1.289062 -0.59375 1.40625 -0.546875 1.5625 -0.546875 C 1.789062 -0.546875 1.945312 -0.625 2.03125 -0.78125 C 2.113281 -0.9375 2.15625 -1.15625 2.15625 -1.4375 L 2.15625 -2.734375 Z M 2.890625 -2.734375 "/></g></g></g><g fill="#026530" fill-opacity="1"><g transform="translate(28.1798, 38.750001)"><g><path d="M 1.9375 -2.78125 C 2.226562 -2.78125 2.460938 -2.703125 2.640625 -2.546875 C 2.816406 -2.390625 2.90625 -2.132812 2.90625 -1.78125 L 2.90625 0 L 2.171875 0 L 2.171875 -1.59375 C 2.171875 -1.789062 2.132812 -1.9375 2.0625 -2.03125 C 1.988281 -2.132812 1.875 -2.1875 1.71875 -2.1875 C 1.5 -2.1875 1.347656 -2.109375 1.265625 -1.953125 C 1.179688 -1.796875 1.140625 -1.570312 1.140625 -1.28125 L 1.140625 0 L 0.390625 0 L 0.390625 -2.734375 L 0.953125 -2.734375 L 1.0625 -2.375 L 1.09375 -2.375 C 1.1875 -2.519531 1.304688 -2.625 1.453125 -2.6875 C 1.609375 -2.75 1.769531 -2.78125 1.9375 -2.78125 Z M 1.9375 -2.78125 "/></g></g></g><g fill="#026530" fill-opacity="1"><g transform="translate(31.464825, 38.750001)"><g><path d="M 2.296875 -0.8125 C 2.296875 -0.53125 2.195312 -0.316406 2 -0.171875 C 1.800781 -0.0234375 1.507812 0.046875 1.125 0.046875 C 0.9375 0.046875 0.773438 0.03125 0.640625 0 C 0.503906 -0.0195312 0.367188 -0.0546875 0.234375 -0.109375 L 0.234375 -0.71875 C 0.378906 -0.65625 0.535156 -0.601562 0.703125 -0.5625 C 0.867188 -0.519531 1.019531 -0.5 1.15625 -0.5 C 1.300781 -0.5 1.40625 -0.519531 1.46875 -0.5625 C 1.53125 -0.601562 1.5625 -0.660156 1.5625 -0.734375 C 1.5625 -0.773438 1.546875 -0.8125 1.515625 -0.84375 C 1.492188 -0.882812 1.441406 -0.925781 1.359375 -0.96875 C 1.273438 -1.019531 1.144531 -1.082031 0.96875 -1.15625 C 0.789062 -1.226562 0.648438 -1.300781 0.546875 -1.375 C 0.441406 -1.445312 0.359375 -1.535156 0.296875 -1.640625 C 0.242188 -1.742188 0.21875 -1.867188 0.21875 -2.015625 C 0.21875 -2.273438 0.316406 -2.46875 0.515625 -2.59375 C 0.710938 -2.71875 0.976562 -2.78125 1.3125 -2.78125 C 1.476562 -2.78125 1.632812 -2.765625 1.78125 -2.734375 C 1.9375 -2.703125 2.097656 -2.644531 2.265625 -2.5625 L 2.046875 -2.03125 C 1.910156 -2.082031 1.78125 -2.128906 1.65625 -2.171875 C 1.539062 -2.210938 1.421875 -2.234375 1.296875 -2.234375 C 1.078125 -2.234375 0.96875 -2.171875 0.96875 -2.046875 C 0.96875 -2.003906 0.976562 -1.960938 1 -1.921875 C 1.03125 -1.890625 1.085938 -1.851562 1.171875 -1.8125 C 1.253906 -1.78125 1.375 -1.726562 1.53125 -1.65625 C 1.6875 -1.59375 1.820312 -1.523438 1.9375 -1.453125 C 2.050781 -1.390625 2.140625 -1.304688 2.203125 -1.203125 C 2.265625 -1.097656 2.296875 -0.96875 2.296875 -0.8125 Z M 2.296875 -0.8125 "/></g></g></g><g fill="#026530" fill-opacity="1"><g transform="translate(33.949844, 38.750001)"><g/></g></g><g fill="#026530" fill-opacity="1"><g transform="translate(35.249857, 38.750001)"><g><path d="M 2.875 -1.375 C 2.875 -0.914062 2.753906 -0.5625 2.515625 -0.3125 C 2.273438 -0.0703125 1.953125 0.046875 1.546875 0.046875 C 1.285156 0.046875 1.054688 -0.00390625 0.859375 -0.109375 C 0.660156 -0.222656 0.503906 -0.382812 0.390625 -0.59375 C 0.273438 -0.8125 0.21875 -1.070312 0.21875 -1.375 C 0.21875 -1.820312 0.335938 -2.164062 0.578125 -2.40625 C 0.816406 -2.65625 1.144531 -2.78125 1.5625 -2.78125 C 1.8125 -2.78125 2.035156 -2.722656 2.234375 -2.609375 C 2.429688 -2.503906 2.585938 -2.34375 2.703125 -2.125 C 2.816406 -1.914062 2.875 -1.664062 2.875 -1.375 Z M 0.984375 -1.375 C 0.984375 -1.101562 1.023438 -0.894531 1.109375 -0.75 C 1.203125 -0.613281 1.347656 -0.546875 1.546875 -0.546875 C 1.742188 -0.546875 1.882812 -0.613281 1.96875 -0.75 C 2.0625 -0.894531 2.109375 -1.101562 2.109375 -1.375 C 2.109375 -1.644531 2.0625 -1.847656 1.96875 -1.984375 C 1.882812 -2.117188 1.742188 -2.1875 1.546875 -2.1875 C 1.347656 -2.1875 1.203125 -2.117188 1.109375 -1.984375 C 1.023438 -1.847656 0.984375 -1.644531 0.984375 -1.375 Z M 0.984375 -1.375 "/></g></g></g><g fill="#026530" fill-opacity="1"><g transform="translate(38.344885, 38.750001)"><g><path d="M 1.9375 -2.78125 C 2.226562 -2.78125 2.460938 -2.703125 2.640625 -2.546875 C 2.816406 -2.390625 2.90625 -2.132812 2.90625 -1.78125 L 2.90625 0 L 2.171875 0 L 2.171875 -1.59375 C 2.171875 -1.789062 2.132812 -1.9375 2.0625 -2.03125 C 1.988281 -2.132812 1.875 -2.1875 1.71875 -2.1875 C 1.5 -2.1875 1.347656 -2.109375 1.265625 -1.953125 C 1.179688 -1.796875 1.140625 -1.570312 1.140625 -1.28125 L 1.140625 0 L 0.390625 0 L 0.390625 -2.734375 L 0.953125 -2.734375 L 1.0625 -2.375 L 1.09375 -2.375 C 1.1875 -2.519531 1.304688 -2.625 1.453125 -2.6875 C 1.609375 -2.75 1.769531 -2.78125 1.9375 -2.78125 Z M 1.9375 -2.78125 "/></g></g></g><g fill="#026530" fill-opacity="1"><g transform="translate(41.629911, 38.750001)"><g/></g></g><g fill="#026530" fill-opacity="1"><g transform="translate(42.929924, 38.750001)"><g><path d="M 0.453125 -3.5625 L 1.5625 -3.5625 C 2.03125 -3.5625 2.382812 -3.492188 2.625 -3.359375 C 2.875 -3.234375 3 -3.003906 3 -2.671875 C 3 -2.460938 2.953125 -2.285156 2.859375 -2.140625 C 2.765625 -2.003906 2.628906 -1.921875 2.453125 -1.890625 L 2.453125 -1.875 C 2.566406 -1.84375 2.671875 -1.796875 2.765625 -1.734375 C 2.867188 -1.679688 2.945312 -1.597656 3 -1.484375 C 3.0625 -1.367188 3.09375 -1.21875 3.09375 -1.03125 C 3.09375 -0.707031 2.972656 -0.453125 2.734375 -0.265625 C 2.503906 -0.0859375 2.1875 0 1.78125 0 L 0.453125 0 Z M 1.203125 -2.15625 L 1.640625 -2.15625 C 1.859375 -2.15625 2.007812 -2.1875 2.09375 -2.25 C 2.1875 -2.320312 2.234375 -2.425781 2.234375 -2.5625 C 2.234375 -2.695312 2.179688 -2.796875 2.078125 -2.859375 C 1.984375 -2.921875 1.828125 -2.953125 1.609375 -2.953125 L 1.203125 -2.953125 Z M 1.203125 -1.5625 L 1.203125 -0.625 L 1.703125 -0.625 C 1.929688 -0.625 2.085938 -0.664062 2.171875 -0.75 C 2.265625 -0.84375 2.3125 -0.960938 2.3125 -1.109375 C 2.3125 -1.242188 2.265625 -1.351562 2.171875 -1.4375 C 2.078125 -1.519531 1.910156 -1.5625 1.671875 -1.5625 Z M 1.203125 -1.5625 "/></g></g></g><g fill="#026530" fill-opacity="1"><g transform="translate(46.289953, 38.750001)"><g><path d="M 1.140625 -3.796875 L 1.140625 -3.03125 C 1.140625 -2.882812 1.132812 -2.75 1.125 -2.625 C 1.113281 -2.507812 1.101562 -2.425781 1.09375 -2.375 L 1.140625 -2.375 C 1.222656 -2.519531 1.332031 -2.625 1.46875 -2.6875 C 1.613281 -2.75 1.769531 -2.78125 1.9375 -2.78125 C 2.226562 -2.78125 2.460938 -2.703125 2.640625 -2.546875 C 2.816406 -2.390625 2.90625 -2.132812 2.90625 -1.78125 L 2.90625 0 L 2.171875 0 L 2.171875 -1.59375 C 2.171875 -1.988281 2.019531 -2.1875 1.71875 -2.1875 C 1.5 -2.1875 1.347656 -2.109375 1.265625 -1.953125 C 1.179688 -1.796875 1.140625 -1.570312 1.140625 -1.28125 L 1.140625 0 L 0.390625 0 L 0.390625 -3.796875 Z M 1.140625 -3.796875 "/></g></g></g><g fill="#026530" fill-opacity="1"><g transform="translate(49.574978, 38.750001)"><g><path d="M 1.515625 -2.78125 C 1.878906 -2.78125 2.15625 -2.703125 2.34375 -2.546875 C 2.539062 -2.390625 2.640625 -2.144531 2.640625 -1.8125 L 2.640625 0 L 2.125 0 L 1.984375 -0.375 L 1.953125 -0.375 C 1.835938 -0.226562 1.710938 -0.117188 1.578125 -0.046875 C 1.453125 0.015625 1.28125 0.046875 1.0625 0.046875 C 0.8125 0.046875 0.601562 -0.0195312 0.4375 -0.15625 C 0.28125 -0.300781 0.203125 -0.519531 0.203125 -0.8125 C 0.203125 -1.101562 0.300781 -1.316406 0.5 -1.453125 C 0.707031 -1.585938 1.019531 -1.664062 1.4375 -1.6875 L 1.90625 -1.703125 L 1.90625 -1.8125 C 1.90625 -1.957031 1.867188 -2.0625 1.796875 -2.125 C 1.722656 -2.195312 1.617188 -2.234375 1.484375 -2.234375 C 1.347656 -2.234375 1.21875 -2.210938 1.09375 -2.171875 C 0.96875 -2.140625 0.835938 -2.09375 0.703125 -2.03125 L 0.46875 -2.546875 C 0.613281 -2.617188 0.773438 -2.675781 0.953125 -2.71875 C 1.128906 -2.757812 1.316406 -2.78125 1.515625 -2.78125 Z M 1.90625 -1.265625 L 1.609375 -1.25 C 1.367188 -1.25 1.203125 -1.207031 1.109375 -1.125 C 1.015625 -1.039062 0.96875 -0.9375 0.96875 -0.8125 C 0.96875 -0.695312 1 -0.613281 1.0625 -0.5625 C 1.132812 -0.519531 1.222656 -0.5 1.328125 -0.5 C 1.492188 -0.5 1.628906 -0.546875 1.734375 -0.640625 C 1.847656 -0.734375 1.90625 -0.867188 1.90625 -1.046875 Z M 1.90625 -1.265625 "/></g></g></g><g fill="#026530" fill-opacity="1"><g transform="translate(52.595003, 38.750001)"><g><path d="M 1.921875 -2.78125 C 1.953125 -2.78125 1.992188 -2.773438 2.046875 -2.765625 C 2.097656 -2.765625 2.140625 -2.765625 2.171875 -2.765625 L 2.109375 -2.0625 C 2.078125 -2.0625 2.039062 -2.0625 2 -2.0625 C 1.957031 -2.070312 1.921875 -2.078125 1.890625 -2.078125 C 1.765625 -2.078125 1.640625 -2.054688 1.515625 -2.015625 C 1.398438 -1.972656 1.304688 -1.898438 1.234375 -1.796875 C 1.171875 -1.703125 1.140625 -1.566406 1.140625 -1.390625 L 1.140625 0 L 0.390625 0 L 0.390625 -2.734375 L 0.953125 -2.734375 L 1.0625 -2.265625 L 1.09375 -2.265625 C 1.175781 -2.410156 1.285156 -2.53125 1.421875 -2.625 C 1.566406 -2.726562 1.734375 -2.78125 1.921875 -2.78125 Z M 1.921875 -2.78125 "/></g></g></g><g fill="#026530" fill-opacity="1"><g transform="translate(54.865025, 38.750001)"><g><path d="M 1.515625 -2.78125 C 1.878906 -2.78125 2.15625 -2.703125 2.34375 -2.546875 C 2.539062 -2.390625 2.640625 -2.144531 2.640625 -1.8125 L 2.640625 0 L 2.125 0 L 1.984375 -0.375 L 1.953125 -0.375 C 1.835938 -0.226562 1.710938 -0.117188 1.578125 -0.046875 C 1.453125 0.015625 1.28125 0.046875 1.0625 0.046875 C 0.8125 0.046875 0.601562 -0.0195312 0.4375 -0.15625 C 0.28125 -0.300781 0.203125 -0.519531 0.203125 -0.8125 C 0.203125 -1.101562 0.300781 -1.316406 0.5 -1.453125 C 0.707031 -1.585938 1.019531 -1.664062 1.4375 -1.6875 L 1.90625 -1.703125 L 1.90625 -1.8125 C 1.90625 -1.957031 1.867188 -2.0625 1.796875 -2.125 C 1.722656 -2.195312 1.617188 -2.234375 1.484375 -2.234375 C 1.347656 -2.234375 1.21875 -2.210938 1.09375 -2.171875 C 0.96875 -2.140625 0.835938 -2.09375 0.703125 -2.03125 L 0.46875 -2.546875 C 0.613281 -2.617188 0.773438 -2.675781 0.953125 -2.71875 C 1.128906 -2.757812 1.316406 -2.78125 1.515625 -2.78125 Z M 1.90625 -1.265625 L 1.609375 -1.25 C 1.367188 -1.25 1.203125 -1.207031 1.109375 -1.125 C 1.015625 -1.039062 0.96875 -0.9375 0.96875 -0.8125 C 0.96875 -0.695312 1 -0.613281 1.0625 -0.5625 C 1.132812 -0.519531 1.222656 -0.5 1.328125 -0.5 C 1.492188 -0.5 1.628906 -0.546875 1.734375 -0.640625 C 1.847656 -0.734375 1.90625 -0.867188 1.90625 -1.046875 Z M 1.90625 -1.265625 "/></g></g></g><g fill="#026530" fill-opacity="1"><g transform="translate(57.885049, 38.750001)"><g><path d="M 1.546875 -0.546875 C 1.628906 -0.546875 1.707031 -0.550781 1.78125 -0.5625 C 1.851562 -0.582031 1.929688 -0.601562 2.015625 -0.625 L 2.015625 -0.078125 C 1.929688 -0.0351562 1.828125 -0.00390625 1.703125 0.015625 C 1.585938 0.0351562 1.460938 0.046875 1.328125 0.046875 C 1.160156 0.046875 1.007812 0.0195312 0.875 -0.03125 C 0.75 -0.0820312 0.648438 -0.171875 0.578125 -0.296875 C 0.503906 -0.429688 0.46875 -0.617188 0.46875 -0.859375 L 0.46875 -2.171875 L 0.109375 -2.171875 L 0.109375 -2.484375 L 0.53125 -2.734375 L 0.734375 -3.3125 L 1.21875 -3.3125 L 1.21875 -2.734375 L 1.984375 -2.734375 L 1.984375 -2.171875 L 1.21875 -2.171875 L 1.21875 -0.859375 C 1.21875 -0.753906 1.242188 -0.675781 1.296875 -0.625 C 1.359375 -0.570312 1.441406 -0.546875 1.546875 -0.546875 Z M 1.546875 -0.546875 "/></g></g></g><g fill="#026530" fill-opacity="1"><g transform="translate(60.055069, 38.750001)"><g><path d="M 1.921875 -2.78125 C 1.953125 -2.78125 1.992188 -2.773438 2.046875 -2.765625 C 2.097656 -2.765625 2.140625 -2.765625 2.171875 -2.765625 L 2.109375 -2.0625 C 2.078125 -2.0625 2.039062 -2.0625 2 -2.0625 C 1.957031 -2.070312 1.921875 -2.078125 1.890625 -2.078125 C 1.765625 -2.078125 1.640625 -2.054688 1.515625 -2.015625 C 1.398438 -1.972656 1.304688 -1.898438 1.234375 -1.796875 C 1.171875 -1.703125 1.140625 -1.566406 1.140625 -1.390625 L 1.140625 0 L 0.390625 0 L 0.390625 -2.734375 L 0.953125 -2.734375 L 1.0625 -2.265625 L 1.09375 -2.265625 C 1.175781 -2.410156 1.285156 -2.53125 1.421875 -2.625 C 1.566406 -2.726562 1.734375 -2.78125 1.921875 -2.78125 Z M 1.921875 -2.78125 "/></g></g></g><g fill="#026530" fill-opacity="1"><g transform="translate(62.325091, 38.750001)"><g><path d="M 1.515625 -2.78125 C 1.878906 -2.78125 2.15625 -2.703125 2.34375 -2.546875 C 2.539062 -2.390625 2.640625 -2.144531 2.640625 -1.8125 L 2.640625 0 L 2.125 0 L 1.984375 -0.375 L 1.953125 -0.375 C 1.835938 -0.226562 1.710938 -0.117188 1.578125 -0.046875 C 1.453125 0.015625 1.28125 0.046875 1.0625 0.046875 C 0.8125 0.046875 0.601562 -0.0195312 0.4375 -0.15625 C 0.28125 -0.300781 0.203125 -0.519531 0.203125 -0.8125 C 0.203125 -1.101562 0.300781 -1.316406 0.5 -1.453125 C 0.707031 -1.585938 1.019531 -1.664062 1.4375 -1.6875 L 1.90625 -1.703125 L 1.90625 -1.8125 C 1.90625 -1.957031 1.867188 -2.0625 1.796875 -2.125 C 1.722656 -2.195312 1.617188 -2.234375 1.484375 -2.234375 C 1.347656 -2.234375 1.21875 -2.210938 1.09375 -2.171875 C 0.96875 -2.140625 0.835938 -2.09375 0.703125 -2.03125 L 0.46875 -2.546875 C 0.613281 -2.617188 0.773438 -2.675781 0.953125 -2.71875 C 1.128906 -2.757812 1.316406 -2.78125 1.515625 -2.78125 Z M 1.90625 -1.265625 L 1.609375 -1.25 C 1.367188 -1.25 1.203125 -1.207031 1.109375 -1.125 C 1.015625 -1.039062 0.96875 -0.9375 0.96875 -0.8125 C 0.96875 -0.695312 1 -0.613281 1.0625 -0.5625 C 1.132812 -0.519531 1.222656 -0.5 1.328125 -0.5 C 1.492188 -0.5 1.628906 -0.546875 1.734375 -0.640625 C 1.847656 -0.734375 1.90625 -0.867188 1.90625 -1.046875 Z M 1.90625 -1.265625 "/></g></g></g><g fill="#026530" fill-opacity="1"><g transform="translate(65.345115, 38.750001)"><g><path d="M 1.546875 -0.546875 C 1.628906 -0.546875 1.707031 -0.550781 1.78125 -0.5625 C 1.851562 -0.582031 1.929688 -0.601562 2.015625 -0.625 L 2.015625 -0.078125 C 1.929688 -0.0351562 1.828125 -0.00390625 1.703125 0.015625 C 1.585938 0.0351562 1.460938 0.046875 1.328125 0.046875 C 1.160156 0.046875 1.007812 0.0195312 0.875 -0.03125 C 0.75 -0.0820312 0.648438 -0.171875 0.578125 -0.296875 C 0.503906 -0.429688 0.46875 -0.617188 0.46875 -0.859375 L 0.46875 -2.171875 L 0.109375 -2.171875 L 0.109375 -2.484375 L 0.53125 -2.734375 L 0.734375 -3.3125 L 1.21875 -3.3125 L 1.21875 -2.734375 L 1.984375 -2.734375 L 1.984375 -2.171875 L 1.21875 -2.171875 L 1.21875 -0.859375 C 1.21875 -0.753906 1.242188 -0.675781 1.296875 -0.625 C 1.359375 -0.570312 1.441406 -0.546875 1.546875 -0.546875 Z M 1.546875 -0.546875 "/></g></g></g><g fill="#026530" fill-opacity="1"><g transform="translate(67.515135, 38.750001)"><g><path d="M 1.140625 -3.796875 L 1.140625 -3.03125 C 1.140625 -2.882812 1.132812 -2.75 1.125 -2.625 C 1.113281 -2.507812 1.101562 -2.425781 1.09375 -2.375 L 1.140625 -2.375 C 1.222656 -2.519531 1.332031 -2.625 1.46875 -2.6875 C 1.613281 -2.75 1.769531 -2.78125 1.9375 -2.78125 C 2.226562 -2.78125 2.460938 -2.703125 2.640625 -2.546875 C 2.816406 -2.390625 2.90625 -2.132812 2.90625 -1.78125 L 2.90625 0 L 2.171875 0 L 2.171875 -1.59375 C 2.171875 -1.988281 2.019531 -2.1875 1.71875 -2.1875 C 1.5 -2.1875 1.347656 -2.109375 1.265625 -1.953125 C 1.179688 -1.796875 1.140625 -1.570312 1.140625 -1.28125 L 1.140625 0 L 0.390625 0 L 0.390625 -3.796875 Z M 1.140625 -3.796875 "/></g></g></g></svg>